# xmcd
#
# Track frame offsets:
#	150
#	19175
#	44587
#	65107
#	79810
#	99197
#	112867
#	130697
#	153915
#	167227
#	181907
#
# Disc length: 2721 seconds
#
# Revision: 1
# Processed by: cddbd v1.5.1PL0 Copyright (c) Steve Scherf et al.
# Submitted via: EasyCDDAExtractor 7.0.5.4
#
DISCID=860a9f0b
DTITLE=Jean Yves Astier and Série Limitée - Rose Blues
DYEAR=1900
DGENRE=Blues
TTITLE0=Hey Hey Canada
TTITLE1=Rose Blues
TTITLE2=Juste pour un Week End
TTITLE3=Chaque Fois Pareil
TTITLE4=Y a pas d'Heure
TTITLE5=Flamme Rouge
TTITLE6=Jalousie
TTITLE7=Comme un Long Printemps
TTITLE8=Las Vegas City
TTITLE9=Pour Rester Deux
TTITLE10=Chaleur Calme (Instrumental)
EXTD=
EXTT0=
EXTT1=
EXTT2=
EXTT3=
EXTT4=
EXTT5=
EXTT6=
EXTT7=
EXTT8=
EXTT9=
EXTT10=
PLAYORDER=
